<svg width="108" height="24" viewBox="0 0 108 24" fill="none" xmlns="http://www.w3.org/2000/svg">
<path fill-rule="evenodd" clip-rule="evenodd" d="M7.96687 0C9.86486 0 11.4069 2.31243 11.4069 5.08734C11.4069 7.86229 9.86486 10.1747 7.96687 10.1747C6.06893 10.1747 4.52685 7.86229 4.52685 5.08734C4.64547 2.31243 6.06893 0 7.96687 0ZM12.3559 12.3715C16.3891 12.3715 16.8635 14.9152 20.1849 19.4244C21.8456 22.6618 19.7105 24.6274 15.9146 23.818C14.2539 23.0087 13.0676 22.6618 11.8814 22.6618C9.74615 22.7774 9.27172 24.0493 6.89928 23.9337C5.00133 23.9337 4.17098 23.1243 4.05236 21.9681C3.81512 20.6963 4.40823 20.0025 5.00133 18.9619C7.25514 15.0308 9.62756 11.909 12.3559 12.3715ZM1.44269 7.63099C0.0192232 8.20909 -0.455262 10.2903 0.493716 12.3715C1.44269 14.4527 3.22201 15.7245 4.64547 15.1464C6.06893 14.5683 6.54341 12.4871 5.59444 10.4059C4.64547 8.32479 2.86615 7.05289 1.44269 7.63099ZM22.5574 7.63099C23.9808 8.20909 24.4553 10.2903 23.5063 12.3715C22.676 14.4527 20.778 15.7245 19.3546 15.1464C17.9311 14.5683 17.4566 12.4871 18.4056 10.4059C19.3546 8.32479 21.1339 7.05289 22.5574 7.63099ZM15.9146 0C17.8125 0 19.3546 2.31243 19.3546 5.08734C19.3546 7.86229 17.8125 10.1747 15.9146 10.1747C14.0166 10.1747 12.4745 7.86229 12.4745 5.08734C12.4745 2.31243 14.0166 0 15.9146 0Z" fill="#4BB87C"/>
<path d="M34.86 19.18C34.4067 19.18 34.06 19.0533 33.82 18.8C33.58 18.5467 33.46 18.1933 33.46 17.74V6.16C33.46 5.70667 33.5867 5.35333 33.84 5.1C34.1067 4.84667 34.4667 4.72 34.92 4.72C35.32 4.72 35.6333 4.8 35.86 4.96C36.1 5.10667 36.32 5.36667 36.52 5.74L41.14 14.18H40.46L45.08 5.74C45.28 5.36667 45.4933 5.10667 45.72 4.96C45.96 4.8 46.2733 4.72 46.66 4.72C47.1133 4.72 47.46 4.84667 47.7 5.1C47.9533 5.35333 48.08 5.70667 48.08 6.16V17.74C48.08 18.1933 47.96 18.5467 47.72 18.8C47.48 19.0533 47.1333 19.18 46.68 19.18C46.2267 19.18 45.8733 19.0533 45.62 18.8C45.38 18.5467 45.26 18.1933 45.26 17.74V9.64H45.7L41.98 16.3C41.82 16.5533 41.6467 16.7467 41.46 16.88C41.2867 17 41.0533 17.06 40.76 17.06C40.4667 17.06 40.2267 16.9933 40.04 16.86C39.8533 16.7267 39.6867 16.54 39.54 16.3L35.78 9.62H36.26V17.74C36.26 18.1933 36.14 18.5467 35.9 18.8C35.6733 19.0533 35.3267 19.18 34.86 19.18ZM53.3595 22.78C53.0129 22.78 52.7262 22.6867 52.4995 22.5C52.2729 22.3133 52.1395 22.0667 52.0995 21.76C52.0595 21.4667 52.1129 21.1533 52.2595 20.82L53.5995 17.86V19.1L50.0595 10.98C49.9262 10.6333 49.8795 10.3133 49.9195 10.02C49.9729 9.71333 50.1195 9.47333 50.3595 9.3C50.6129 9.11333 50.9595 9.02 51.3995 9.02C51.7595 9.02 52.0462 9.10667 52.2595 9.28C52.4862 9.44 52.6929 9.75333 52.8795 10.22L55.2395 16.22H54.5995L57.0395 10.2C57.2262 9.74667 57.4329 9.44 57.6595 9.28C57.8995 9.10667 58.2195 9.02 58.6195 9.02C58.9662 9.02 59.2395 9.11333 59.4395 9.3C59.6529 9.47333 59.7795 9.70667 59.8195 10C59.8729 10.2933 59.8195 10.6133 59.6595 10.96L54.9595 21.62C54.7595 22.0733 54.5329 22.38 54.2795 22.54C54.0395 22.7 53.7329 22.78 53.3595 22.78ZM68.7495 19.18C68.2429 19.18 67.8562 19.04 67.5895 18.76C67.3229 18.48 67.1895 18.0867 67.1895 17.58V6.48C67.1895 5.96 67.3229 5.56667 67.5895 5.3C67.8695 5.03333 68.2629 4.9 68.7695 4.9H73.6295C75.2029 4.9 76.4162 5.3 77.2695 6.1C78.1229 6.88667 78.5495 7.98667 78.5495 9.4C78.5495 10.8133 78.1229 11.92 77.2695 12.72C76.4162 13.52 75.2029 13.92 73.6295 13.92H70.2895V17.58C70.2895 18.0867 70.1562 18.48 69.8895 18.76C69.6362 19.04 69.2562 19.18 68.7495 19.18ZM70.2895 11.52H73.1095C73.9095 11.52 74.5162 11.34 74.9295 10.98C75.3562 10.62 75.5695 10.0933 75.5695 9.4C75.5695 8.70667 75.3562 8.18667 74.9295 7.84C74.5162 7.49333 73.9095 7.32 73.1095 7.32H70.2895V11.52ZM84.7834 19.22C83.6234 19.22 82.6234 19.0133 81.7834 18.6C80.9568 18.1733 80.3168 17.58 79.8634 16.82C79.4234 16.0467 79.2034 15.14 79.2034 14.1C79.2034 13.0867 79.4168 12.2 79.8434 11.44C80.2701 10.6667 80.8634 10.0667 81.6234 9.64C82.3968 9.2 83.2701 8.98 84.2434 8.98C84.9501 8.98 85.5901 9.1 86.1634 9.34C86.7368 9.56667 87.2301 9.9 87.6434 10.34C88.0568 10.7667 88.3701 11.2933 88.5834 11.92C88.7968 12.5333 88.9034 13.22 88.9034 13.98C88.9034 14.2333 88.8234 14.4267 88.6634 14.56C88.5034 14.68 88.2701 14.74 87.9634 14.74H81.6834V13.18H86.7234L86.4034 13.46C86.4034 12.9133 86.3234 12.46 86.1634 12.1C86.0034 11.7267 85.7701 11.4467 85.4634 11.26C85.1701 11.0733 84.8034 10.98 84.3634 10.98C83.8701 10.98 83.4501 11.0933 83.1034 11.32C82.7568 11.5467 82.4901 11.8733 82.3034 12.3C82.1168 12.7267 82.0234 13.24 82.0234 13.84V14C82.0234 15.0133 82.2568 15.76 82.7234 16.24C83.2034 16.72 83.9101 16.96 84.8434 16.96C85.1634 16.96 85.5301 16.92 85.9434 16.84C86.3568 16.76 86.7434 16.6333 87.1034 16.46C87.4101 16.3133 87.6834 16.2667 87.9234 16.32C88.1634 16.36 88.3501 16.4667 88.4834 16.64C88.6168 16.8133 88.6901 17.0133 88.7034 17.24C88.7301 17.4667 88.6834 17.6933 88.5634 17.92C88.4434 18.1333 88.2434 18.3133 87.9634 18.46C87.5101 18.7133 86.9968 18.9 86.4234 19.02C85.8634 19.1533 85.3168 19.22 84.7834 19.22ZM95.4214 19.22C94.5014 19.22 93.7281 19.0667 93.1014 18.76C92.4881 18.4533 92.0281 18.0067 91.7214 17.42C91.4281 16.8333 91.2814 16.0933 91.2814 15.2V11.44H90.4414C90.0681 11.44 89.7747 11.34 89.5614 11.14C89.3614 10.94 89.2614 10.6667 89.2614 10.32C89.2614 9.94667 89.3614 9.66667 89.5614 9.48C89.7747 9.28 90.0681 9.18 90.4414 9.18H91.2814V7.66C91.2814 7.15333 91.4147 6.77333 91.6814 6.52C91.9481 6.25333 92.3214 6.12 92.8014 6.12C93.2947 6.12 93.6681 6.25333 93.9214 6.52C94.1747 6.77333 94.3014 7.15333 94.3014 7.66V9.18H96.2014C96.5747 9.18 96.8614 9.28 97.0614 9.48C97.2614 9.66667 97.3614 9.94667 97.3614 10.32C97.3614 10.6667 97.2614 10.94 97.0614 11.14C96.8614 11.34 96.5747 11.44 96.2014 11.44H94.3014V15.08C94.3014 15.64 94.4281 16.06 94.6814 16.34C94.9481 16.62 95.3681 16.76 95.9414 16.76C96.1414 16.76 96.3281 16.74 96.5014 16.7C96.6747 16.66 96.8347 16.6333 96.9814 16.62C97.1681 16.6067 97.3214 16.6667 97.4414 16.8C97.5614 16.92 97.6214 17.1933 97.6214 17.62C97.6214 17.94 97.5681 18.22 97.4614 18.46C97.3547 18.7 97.1681 18.8733 96.9014 18.98C96.7281 19.0467 96.4881 19.1 96.1814 19.14C95.8881 19.1933 95.6347 19.22 95.4214 19.22ZM102.447 19.22C101.861 19.22 101.254 19.1667 100.627 19.06C100.014 18.9533 99.454 18.7733 98.9473 18.52C98.6807 18.3867 98.4873 18.22 98.3673 18.02C98.2607 17.8067 98.214 17.5933 98.2273 17.38C98.2407 17.1667 98.3073 16.9733 98.4273 16.8C98.5607 16.6267 98.7273 16.5133 98.9273 16.46C99.1407 16.3933 99.374 16.4133 99.6273 16.52C100.174 16.7467 100.674 16.9067 101.127 17C101.581 17.0933 102.027 17.14 102.467 17.14C103.041 17.14 103.454 17.0533 103.707 16.88C103.974 16.6933 104.107 16.4533 104.107 16.16C104.107 15.8933 104.021 15.6933 103.847 15.56C103.674 15.4267 103.421 15.3333 103.087 15.28L100.987 14.9C100.161 14.7533 99.5207 14.4533 99.0673 14C98.6273 13.5333 98.4073 12.94 98.4073 12.22C98.4073 11.5533 98.594 10.98 98.9673 10.5C99.3407 10.0067 99.854 9.63333 100.507 9.38C101.174 9.11333 101.927 8.98 102.767 8.98C103.367 8.98 103.921 9.03333 104.427 9.14C104.934 9.24667 105.421 9.42 105.887 9.66C106.127 9.78 106.294 9.94 106.387 10.14C106.494 10.34 106.527 10.5467 106.487 10.76C106.461 10.9733 106.381 11.1667 106.247 11.34C106.114 11.5133 105.941 11.6267 105.727 11.68C105.527 11.7333 105.294 11.7067 105.027 11.6C104.601 11.4 104.207 11.26 103.847 11.18C103.487 11.0867 103.141 11.04 102.807 11.04C102.207 11.04 101.774 11.14 101.507 11.34C101.241 11.5267 101.107 11.7667 101.107 12.06C101.107 12.2867 101.181 12.48 101.327 12.64C101.487 12.7867 101.727 12.8867 102.047 12.94L104.147 13.32C105.014 13.4667 105.674 13.76 106.127 14.2C106.581 14.6267 106.807 15.2133 106.807 15.96C106.807 16.9733 106.407 17.7733 105.607 18.36C104.821 18.9333 103.767 19.22 102.447 19.22Z" fill="#4BB87C"/>
</svg>
